<svg width="150" height="150" viewBox="0 0 150 150" fill="none" xmlns="http://www.w3.org/2000/svg">
<path d="M20.434 72.676C20.902 72.0173 21.5433 71.4713 22.358 71.038C23.19 70.5873 24.1347 70.362 25.192 70.362C26.4227 70.362 27.532 70.6653 28.52 71.272C29.5253 71.8787 30.314 72.7453 30.886 73.872C31.4753 74.9813 31.77 76.2727 31.77 77.746C31.77 79.2193 31.4753 80.528 30.886 81.672C30.314 82.7987 29.5253 83.674 28.52 84.298C27.532 84.922 26.4227 85.234 25.192 85.234C24.1347 85.234 23.1987 85.0173 22.384 84.584C21.5867 84.1507 20.9367 83.6047 20.434 82.946V91.864H16.794V70.596H20.434V72.676ZM28.052 77.746C28.052 76.8793 27.87 76.134 27.506 75.51C27.1593 74.8687 26.6913 74.3833 26.102 74.054C25.53 73.7247 24.906 73.56 24.23 73.56C23.5713 73.56 22.9473 73.7333 22.358 74.08C21.786 74.4093 21.318 74.8947 20.954 75.536C20.6073 76.1773 20.434 76.9313 20.434 77.798C20.434 78.6647 20.6073 79.4187 20.954 80.06C21.318 80.7013 21.786 81.1953 22.358 81.542C22.9473 81.8713 23.5713 82.036 24.23 82.036C24.906 82.036 25.53 81.8627 26.102 81.516C26.6913 81.1693 27.1593 80.6753 27.506 80.034C27.87 79.3927 28.052 78.63 28.052 77.746ZM40.0571 70.362C41.1318 70.362 42.0764 70.5787 42.8911 71.012C43.7058 71.428 44.3471 71.974 44.8151 72.65V70.596H48.4811V85.104C48.4811 86.4387 48.2124 87.626 47.6751 88.666C47.1378 89.7233 46.3318 90.5553 45.2571 91.162C44.1824 91.786 42.8824 92.098 41.3571 92.098C39.3118 92.098 37.6304 91.6213 36.3131 90.668C35.0131 89.7147 34.2764 88.4147 34.1031 86.768H37.7171C37.9078 87.4267 38.3151 87.9467 38.9391 88.328C39.5804 88.7267 40.3518 88.926 41.2531 88.926C42.3104 88.926 43.1684 88.6053 43.8271 87.964C44.4858 87.34 44.8151 86.3867 44.8151 85.104V82.868C44.3471 83.544 43.6971 84.1073 42.8651 84.558C42.0504 85.0087 41.1144 85.234 40.0571 85.234C38.8438 85.234 37.7344 84.922 36.7291 84.298C35.7238 83.674 34.9264 82.7987 34.3371 81.672C33.7651 80.528 33.4791 79.2193 33.4791 77.746C33.4791 76.29 33.7651 74.9987 34.3371 73.872C34.9264 72.7453 35.7151 71.8787 36.7031 71.272C37.7084 70.6653 38.8264 70.362 40.0571 70.362ZM44.8151 77.798C44.8151 76.914 44.6418 76.16 44.2951 75.536C43.9484 74.8947 43.4804 74.4093 42.8911 74.08C42.3018 73.7333 41.6691 73.56 40.9931 73.56C40.3171 73.56 39.6931 73.7247 39.1211 74.054C38.5491 74.3833 38.0811 74.8687 37.7171 75.51C37.3704 76.134 37.1971 76.8793 37.1971 77.746C37.1971 78.6127 37.3704 79.3753 37.7171 80.034C38.0811 80.6753 38.5491 81.1693 39.1211 81.516C39.7104 81.8627 40.3344 82.036 40.9931 82.036C41.6691 82.036 42.3018 81.8713 42.8911 81.542C43.4804 81.1953 43.9484 80.71 44.2951 80.086C44.6418 79.4447 44.8151 78.682 44.8151 77.798ZM58.0422 81.646L61.6822 70.596H65.5562L60.2262 85H55.8062L50.5022 70.596H54.4022L58.0422 81.646ZM80.9906 77.486C80.9906 78.006 80.956 78.474 80.8866 78.89H70.3566C70.4433 79.93 70.8073 80.7447 71.4486 81.334C72.09 81.9233 72.8786 82.218 73.8146 82.218C75.1666 82.218 76.1286 81.6373 76.7006 80.476H80.6266C80.2106 81.8627 79.4133 83.0067 78.2346 83.908C77.056 84.792 75.6086 85.234 73.8926 85.234C72.506 85.234 71.258 84.9307 70.1486 84.324C69.0566 83.7 68.1986 82.8247 67.5746 81.698C66.968 80.5713 66.6646 79.2713 66.6646 77.798C66.6646 76.3073 66.968 74.9987 67.5746 73.872C68.1813 72.7453 69.0306 71.8787 70.1226 71.272C71.2146 70.6653 72.4713 70.362 73.8926 70.362C75.262 70.362 76.484 70.6567 77.5586 71.246C78.6506 71.8353 79.4913 72.676 80.0806 73.768C80.6873 74.8427 80.9906 76.082 80.9906 77.486ZM77.2206 76.446C77.2033 75.51 76.8653 74.7647 76.2066 74.21C75.548 73.638 74.742 73.352 73.7886 73.352C72.8873 73.352 72.1246 73.6293 71.5006 74.184C70.894 74.7213 70.5213 75.4753 70.3826 76.446H77.2206ZM82.7115 77.798C82.7115 76.3073 83.0148 75.0073 83.6215 73.898C84.2282 72.7713 85.0688 71.9047 86.1435 71.298C87.2182 70.674 88.4488 70.362 89.8355 70.362C91.6208 70.362 93.0942 70.8127 94.2555 71.714C95.4342 72.598 96.2228 73.846 96.6215 75.458H92.6955C92.4875 74.834 92.1322 74.3487 91.6295 74.002C91.1442 73.638 90.5375 73.456 89.8095 73.456C88.7695 73.456 87.9462 73.8373 87.3395 74.6C86.7328 75.3453 86.4295 76.4113 86.4295 77.798C86.4295 79.1673 86.7328 80.2333 87.3395 80.996C87.9462 81.7413 88.7695 82.114 89.8095 82.114C91.2828 82.114 92.2448 81.4553 92.6955 80.138H96.6215C96.2228 81.698 95.4342 82.9373 94.2555 83.856C93.0768 84.7747 91.6035 85.234 89.8355 85.234C88.4488 85.234 87.2182 84.9307 86.1435 84.324C85.0688 83.7 84.2282 82.8333 83.6215 81.724C83.0148 80.5973 82.7115 79.2887 82.7115 77.798ZM103.526 73.586V80.554C103.526 81.0393 103.639 81.3947 103.864 81.62C104.107 81.828 104.505 81.932 105.06 81.932H106.75V85H104.462C101.394 85 99.8601 83.5093 99.8601 80.528V73.586H98.1441V70.596H99.8601V67.034H103.526V70.596H106.75V73.586H103.526ZM115.764 85.234C114.378 85.234 113.13 84.9307 112.02 84.324C110.911 83.7 110.036 82.8247 109.394 81.698C108.77 80.5713 108.458 79.2713 108.458 77.798C108.458 76.3247 108.779 75.0247 109.42 73.898C110.079 72.7713 110.972 71.9047 112.098 71.298C113.225 70.674 114.482 70.362 115.868 70.362C117.255 70.362 118.512 70.674 119.638 71.298C120.765 71.9047 121.649 72.7713 122.29 73.898C122.949 75.0247 123.278 76.3247 123.278 77.798C123.278 79.2713 122.94 80.5713 122.264 81.698C121.606 82.8247 120.704 83.7 119.56 84.324C118.434 84.9307 117.168 85.234 115.764 85.234ZM115.764 82.062C116.423 82.062 117.038 81.906 117.61 81.594C118.2 81.2647 118.668 80.7793 119.014 80.138C119.361 79.4967 119.534 78.7167 119.534 77.798C119.534 76.4287 119.17 75.38 118.442 74.652C117.732 73.9067 116.856 73.534 115.816 73.534C114.776 73.534 113.901 73.9067 113.19 74.652C112.497 75.38 112.15 76.4287 112.15 77.798C112.15 79.1673 112.488 80.2247 113.164 80.97C113.858 81.698 114.724 82.062 115.764 82.062ZM129.588 72.832C130.056 72.0693 130.663 71.4713 131.408 71.038C132.171 70.6047 133.038 70.388 134.008 70.388V74.21H133.046C131.902 74.21 131.036 74.4787 130.446 75.016C129.874 75.5533 129.588 76.4893 129.588 77.824V85H125.948V70.596H129.588V72.832Z" fill="black"/>
</svg>
